# xmcd
#
# Track frame offsets: 
#        150
#        24505
#        53752
#        81762
#        117885
#        145490
#        172882
#        195465
#        228420
#        245615
#        274727
#
# Disc length: 3937 seconds
#
# Revision: 0
# Processed by: cddbd v1.5.2PL0 Copyright (c) Steve Scherf et al.
# Submitted via: ExactAudioCopy v1.0b3
#
DISCID=8f0f5f0b
DTITLE=Various Artist - Mua Bui 5
DYEAR=1900
DGENRE=
TTITLE0=Dinh Van - Toi tinh
TTITLE1=Tai Linh, Tu Chau - Nguoi trong ly tuong
TTITLE2=Thuy Trang - Sa mua giong
TTITLE3=Dinh Van, Lam Truong - LK Chi con minh anh
TTITLE4=Che Thanh - Nhan co cho em
TTITLE5=Tai Linh - Cau hat ly theo chong
TTITLE6=Lam Truong - Vong tay nguoi yeu
TTITLE7=Tai Linh, Kim Tu Long, Tu Chau, Canh Han - Loi cuoi cho tinh y
TTITLE7=eu 2
TTITLE8=Kim Tu Long - Chang dam lam quen
TTITLE9=Tai Linh, Dinh Van - Mua bui hoang hon (Mua bui 3)
TTITLE10=Tai Linh, Kim Tu Long, Tu Chau, Canh Han - Xin dung hai hoa
EXTD=
EXTT0=
EXTT1=
EXTT2=
EXTT3=
EXTT4=
EXTT5=
EXTT6=
EXTT7=
EXTT8=
EXTT9=
EXTT10=
PLAYORDER=
